<?xml version="1.0" standalone="no"?>
<!DOCTYPE svg PUBLIC "-//W3C//DTD SVG 20010904//EN"
 "http://www.w3.org/TR/2001/REC-SVG-20010904/DTD/svg10.dtd">
<svg version="1.0" xmlns="http://www.w3.org/2000/svg"
 width="400.000000pt" height="200.000000pt" viewBox="0 0 400.000000 200.000000"
 preserveAspectRatio="xMidYMid meet">
<metadata>
Created by potrace 1.13, written by Peter Selinger 2001-2015
</metadata>
<g transform="translate(0.000000,200.000000) scale(0.100000,-0.100000)"
fill="#000000" stroke="none">
<path d="M260 1105 l0 -365 370 0 370 0 0 365 0 365 -370 0 -370 0 0 -365z"/>
<path d="M1070 1070 l0 -400 -405 0 -405 0 0 -70 0 -70 485 0 485 0 0 470 0
470 -80 0 -80 0 0 -400z"/>
<path d="M1550 1271 c0 -6 10 -11 23 -11 13 0 32 -6 43 -14 18 -14 19 -29 19
-286 0 -257 -1 -272 -19 -286 -11 -8 -30 -14 -43 -14 -13 0 -23 -4 -23 -10 0
-14 355 -13 419 1 91 19 150 75 158 151 9 75 -36 135 -118 160 -22 6 -39 14
-39 17 1 3 22 16 48 28 80 37 103 108 61 183 -12 21 -40 48 -63 61 -39 23 -51
24 -253 27 -149 3 -213 0 -213 -7z m353 -45 c32 -21 47 -57 47 -110 0 -73 -61
-126 -145 -126 l-35 0 0 131 0 132 54 -6 c30 -3 65 -13 79 -21z m3 -291 c57
-37 82 -133 51 -195 -19 -37 -74 -70 -118 -70 -60 0 -69 21 -69 169 l0 124 56
-6 c30 -3 67 -13 80 -22z"/>
<path d="M2190 1271 c0 -6 11 -11 25 -11 14 0 34 -9 45 -20 19 -19 20 -33 20
-280 0 -247 -1 -261 -20 -280 -11 -11 -31 -20 -45 -20 -14 0 -25 -4 -25 -10 0
-6 60 -10 160 -10 100 0 160 4 160 10 0 6 -12 10 -26 10 -14 0 -34 5 -45 10
-17 10 -19 22 -19 139 l0 128 80 6 c121 10 192 55 210 134 18 75 -22 146 -100
182 -44 19 -420 30 -420 12z m321 -37 c52 -26 72 -103 48 -187 -12 -45 -57
-77 -106 -77 -32 0 -33 1 -33 44 0 24 -3 51 -6 60 -4 11 -1 16 10 16 10 0 16
9 16 25 0 14 -4 25 -10 25 -5 0 -10 25 -10 55 0 55 0 55 30 55 17 0 45 -7 61
-16z"/>
<path d="M2770 1270 c0 -5 13 -10 29 -10 60 0 61 -5 61 -300 0 -295 -1 -300
-61 -300 -16 0 -29 -4 -29 -10 0 -6 60 -10 160 -10 100 0 160 4 160 10 0 6
-11 10 -24 10 -54 0 -56 8 -56 300 0 292 2 300 56 300 13 0 24 5 24 10 0 6
-60 10 -160 10 -100 0 -160 -4 -160 -10z"/>
<path d="M3161 1188 c1 -78 2 -87 11 -59 22 78 66 111 148 111 l50 0 0 -270
c0 -257 -1 -271 -20 -290 -11 -11 -31 -20 -45 -20 -14 0 -25 -4 -25 -10 0 -6
60 -10 160 -10 100 0 160 4 160 10 0 6 -11 10 -25 10 -14 0 -34 9 -45 20 -19
19 -20 33 -20 290 l0 270 53 0 c73 0 110 -25 136 -92 l20 -53 0 93 1 92 -280
0 -280 0 1 -92z"/>
</g>
</svg>
